<?xml version="1.0" encoding="UTF-8"?>
<!-- Generator: visioncortex VTracer 0.6.3 -->
<svg version="1.1" xmlns="http://www.w3.org/2000/svg" width="145" height="44">
<path d="M0 0 C47.85 0 95.7 0 145 0 C145 14.52 145 29.04 145 44 C97.15 44 49.3 44 0 44 C0 29.48 0 14.96 0 0 Z " fill="#020201" transform="translate(0,0)"/>
<path d="M0 0 C3.59 1.58 5.37 3.27 7.23 6.8 C8.75 11.15 8.7 15.49 8 20 C6.12 23.38 6.12 23.38 4 26 C3.28 27.65 2.6 29.31 2 31 C1.77 30.46 1.55 29.93 1.31 29.38 C0.15 27.27 -1.02 25.69 -2.56 23.88 C-6.11 19.69 -6.44 17.13 -6.43 11.75 C-5.69 7.02 -2.96 3.65 0 0 Z " fill="#429C39" transform="translate(18,6)"/>
<path d="M0 0 C8.77 -0.61 8.77 -0.61 13.12 1.56 C15 4 15 4 15.56 7.5 C15 11 15 11 13.62 13.44 C9.47 15.91 5.77 15.25 1 15 C1.33 10.71 1.66 6.42 2 2 C1.34 2 0.68 2 0 2 C0 1.34 0 0.68 0 0 Z " fill="#8D8C89" transform="translate(99,17)"/>
<path d="M0 0 C1.46 -0.05 2.92 -0.09 4.38 -0.12 C5.19 -0.15 6 -0.17 6.84 -0.2 C9 0 9 0 11 2 C11.04 3.67 11.04 5.33 11 7 C11.33 7.33 11.66 7.66 12 8 C12.19 10.44 12.19 10.44 12 13 C10 15 10 15 7.62 15.2 C6.71 15.17 5.81 15.15 4.88 15.12 C3.51 15.1 3.51 15.1 2.12 15.07 C1.42 15.05 0.72 15.02 0 15 C0.66 14.67 1.32 14.34 2 14 C2 10.04 2 6.08 2 2 C1.34 2 0.68 2 0 2 C0 1.34 0 0.68 0 0 Z " fill="#898885" transform="translate(116,17)"/>
<path d="M0 0 C2.73 0.03 5.3 0.56 8 1 C7.01 1.5 7.01 1.5 6 2 C5.34 4.53 5.34 4.53 5 7 C3.68 7 2.36 7 1 7 C1 7.66 1 8.32 1 9 C2.98 9 4.96 9 7 9 C7.12 11.38 7.12 11.38 7 14 C5 16 5 16 1.88 16.12 C0.45 16.06 0.45 16.06 -1 16 C-1.87 12.51 -1.86 10.43 -1 7 C-1.19 6.13 -1.37 5.27 -1.56 4.38 C-1.71 3.59 -1.85 2.81 -2 2 C-1.34 1.34 -0.68 0.68 0 0 Z " fill="#1E1F1F" transform="translate(78,22)"/>
<path d="M0 0 C2.88 0.75 2.88 0.75 3.88 1.75 C4.06 4.69 4.06 4.69 3.88 7.75 C1.88 9.75 1.88 9.75 -1.12 10 C-4.12 9.75 -4.12 9.75 -6.12 7.75 C-6.49 4.92 -6.48 3.34 -5 0.88 C-3.12 -0.25 -3.12 -0.25 0 0 Z " fill="#333435" transform="translate(93.125,22.25)"/>
<path d="M0 0 C2.88 0.75 2.88 0.75 3.88 1.75 C4.06 4.69 4.06 4.69 3.88 7.75 C1.88 9.75 1.88 9.75 -1.12 10 C-4.12 9.75 -4.12 9.75 -6.12 7.75 C-6.49 4.92 -6.48 3.34 -5 0.88 C-3.12 -0.25 -3.12 -0.25 0 0 Z " fill="#323234" transform="translate(56.125,22.25)"/>
<path d="M0 0 C5 0 5 0 6.81 1.12 C8.55 3.87 8.4 5.82 8 9 C6.81 10.88 6.81 10.88 5 12 C3.35 12 1.7 12 0 12 C0 8.04 0 4.08 0 0 Z " fill="#0A0A0A" transform="translate(104,19)"/>
<path d="M0 0 C2.05 2.05 1.7 6.3 2 9 C0.68 8.67 -0.64 8.34 -2 8 C-2 6.02 -2 4.04 -2 2 C-2.66 2 -3.32 2 -4 2 C-4 4.31 -4 6.62 -4 9 C-5.32 8.67 -6.64 8.34 -8 8 C-8 6.02 -8 4.04 -8 2 C-8.99 1.67 -9.98 1.34 -11 1 C-10.67 3.64 -10.34 6.28 -10 9 C-11.65 9 -13.3 9 -15 9 C-14.34 8.67 -13.68 8.34 -13 8 C-13.66 5.36 -14.32 2.72 -15 0 C-10.03 -1.49 -5.04 -0.84 0 0 Z " fill="#353637" transform="translate(46,23)"/>
<path d="M0 0 C6 0 12 0 18 0 C17.67 1.65 17.34 3.3 17 5 C16.28 4.81 15.56 4.63 14.81 4.44 C11.87 3.98 9.86 4.26 7 5 C6.67 4.34 6.34 3.68 6 3 C5.01 3.66 4.02 4.32 3 5 C1.68 5 0.36 5 -1 5 C-0.67 3.35 -0.34 1.7 0 0 Z " fill="#888888" transform="translate(40,9)"/>
<path d="M0 0 C2.05 2.05 1.7 6.3 2 9 C0.35 9 -1.3 9 -3 9 C-2.67 6.69 -2.34 4.38 -2 2 C-3.32 2 -4.64 2 -6 2 C-5.67 4.31 -5.34 6.62 -5 9 C-6.32 8.67 -7.64 8.34 -9 8 C-8.98 7.05 -8.96 6.1 -8.94 5.12 C-8.77 2.09 -8.77 2.09 -10 0 C-6.36 -0.74 -3.54 -1.31 0 0 Z " fill="#323234" transform="translate(72,23)"/>
<path d="M0 0 C0.66 0 1.32 0 2 0 C2 0.66 2 1.32 2 2 C3.98 2 5.96 2 8 2 C8.33 2.66 8.66 3.32 9 4 C9.33 3.34 9.66 2.68 10 2 C10.66 2.33 11.32 2.66 12 3 C10.02 5.97 10.02 5.97 8 9 C7.01 8.67 6.02 8.34 5 8 C5.66 8 6.32 8 7 8 C6.67 7.34 6.34 6.68 6 6 C5.67 6.33 5.34 6.66 5 7 C3.33 7.04 1.67 7.04 0 7 C0 4.69 0 2.38 0 0 Z " fill="#7A7A7A" transform="translate(78,7)"/>
<path d="M0 0 C0.66 0 1.32 0 2 0 C1.67 2.31 1.34 4.62 1 7 C-7.38 7 -7.38 7 -11 6 C-10.34 4.68 -9.68 3.36 -9 2 C-6.03 2 -3.06 2 0 2 C0 1.34 0 0.68 0 0 Z " fill="#AAAAAA" transform="translate(73,7)"/>
<path d="M0 0 C0.33 0 0.66 0 1 0 C1.33 9.9 1.66 19.8 2 30 C-0.16 25.67 -0.4 22.27 -0.56 17.56 C-0.77 11.8 -0.77 11.8 -1.59 6.11 C-2.11 3.43 -1.43 2.26 0 0 Z " fill="#5EB44D" transform="translate(18,7)"/>
<path d="M0 0 C0.66 0 1.32 0 2 0 C2.33 3.96 2.66 7.92 3 12 C4.32 12 5.64 12 7 12 C7.33 10.68 7.66 9.36 8 8 C8.66 8 9.32 8 10 8 C9.12 12.88 9.12 12.88 8 14 C6.31 14.07 4.62 14.08 2.94 14.06 C2.02 14.05 1.1 14.04 0.15 14.04 C-0.56 14.02 -1.27 14.01 -2 14 C-1.34 13.67 -0.68 13.34 0 13 C0 8.71 0 4.42 0 0 Z " fill="#ADAAA7" transform="translate(118,18)"/>
<path d="M0 0 C3.33 0 6.67 0 10 0 C9.67 1.65 9.34 3.3 9 5 C8.24 4.81 7.47 4.63 6.69 4.44 C3.91 3.77 3.91 3.77 1 5 C0.67 3.35 0.34 1.7 0 0 Z " fill="#A0A0A0" transform="translate(48,9)"/>
<path d="M0 0 C1.65 0 3.3 0 5 0 C5.33 1.65 5.66 3.3 6 5 C4.34 5.38 2.68 5.71 1 6 C0 5 0 5 -0.06 2.44 C-0.04 1.63 -0.02 0.83 0 0 Z " fill="#161615" transform="translate(120,25)"/>
<path d="M0 0 C0.66 0.33 1.32 0.66 2 1 C3.26 5.48 3.26 5.48 2 8 C3.98 8 5.96 8 8 8 C8 9.65 8 11.3 8 13 C7.61 12.53 7.22 12.05 6.81 11.56 C4.59 9.65 2.87 9.39 0 9 C-0.88 2.85 -0.88 2.85 -1 1 C-0.67 0.67 -0.34 0.34 0 0 Z " fill="#38383A" transform="translate(77,23)"/>
<path d="M0 0 C2.47 0.5 2.47 0.5 5 1 C5 2.65 5 4.3 5 6 C3.06 6.56 3.06 6.56 1 7 C0 6 0 6 -0.06 2.94 C-0.04 1.97 -0.02 1 0 0 Z " fill="#040404" transform="translate(90,24)"/>
<path d="M0 0 C1.32 0 2.64 0 4 0 C4.33 1.98 4.66 3.96 5 6 C3.06 6.56 3.06 6.56 1 7 C0 6 0 6 -0.06 2.94 C-0.04 1.97 -0.02 1 0 0 Z " fill="#020302" transform="translate(53,24)"/>
<path d="M0 0 C2.87 0.57 3.86 0.86 6 3 C6.57 9.26 6.57 9.26 4.5 11.94 C4 12.29 3.51 12.64 3 13 C2.34 12.67 1.68 12.34 1 12 C1.66 11.34 2.32 10.68 3 10 C3.38 6.5 3.4 4.64 1.5 1.62 C1 1.09 0.51 0.55 0 0 Z " fill="#ADAAA7" transform="translate(108,18)"/>
<path d="M0 0 C1.21 0.03 1.21 0.03 2.44 0.06 C2.11 1.71 1.78 3.36 1.44 5.06 C0.12 5.06 -1.2 5.06 -2.56 5.06 C-2.89 5.72 -3.22 6.38 -3.56 7.06 C-3.61 5.06 -3.6 3.06 -3.56 1.06 C-2.56 0.06 -2.56 0.06 0 0 Z " fill="#898989" transform="translate(35.5625,8.9375)"/>
<path d="M0 0 C2.47 0.5 2.47 0.5 5 1 C5 1.99 5 2.98 5 4 C3.35 4 1.7 4 0 4 C0 2.68 0 1.36 0 0 Z " fill="#121211" transform="translate(120,19)"/>
<path d="M0 0 C0.66 0 1.32 0 2 0 C2 0.66 2 1.32 2 2 C2.99 2 3.98 2 5 2 C4 4 4 4 2 5 C2.66 5.66 3.32 6.32 4 7 C2.68 7 1.36 7 0 7 C0 4.69 0 2.38 0 0 Z " fill="#A9A9A9" transform="translate(78,7)"/>
<path d="M0 0 C5.54 -0.37 5.54 -0.37 7.88 1.5 C8.25 2 8.62 2.49 9 3 C5.73 3 3.15 2.7 0 2 C0 1.34 0 0.68 0 0 Z " fill="#5A5A5A" transform="translate(64,9)"/>
</svg>
