<?xml version="1.0" encoding="UTF-8"?>
<svg version="1.1" xmlns="http://www.w3.org/2000/svg" width="370" height="124">
<path d="M0 0 C122.1 0 244.2 0 370 0 C370 40.92 370 81.84 370 124 C247.9 124 125.8 124 0 124 C0 83.08 0 42.16 0 0 Z " fill="#000102" transform="translate(0,0)"/>
<path d="M0 0 C2.47740938 1.34916243 4.69235113 2.84842789 6.95703125 4.52734375 C8.90555885 5.93192292 10.82636623 6.98889395 13 8 C13.51949219 7.51789062 14.03898437 7.03578125 14.57421875 6.5390625 C19.46376572 2.11045249 22.84196153 -0.48323007 29.4375 -1.5625 C33.68963617 -0.89111008 35.29356838 0.03053465 37.90625 3.38671875 C40.30416326 9.11601864 39.54461261 15.91274772 39 22 C38.67 22.66 38.34 23.32 38 24 C38.825 24.226875 39.65 24.45375 40.5 24.6875 C46.13719453 26.80144795 52.39584019 30.04428026 56 35 C56.72299387 38.25347243 56.58984802 40.07146506 54.7890625 42.90625 C52.09624954 46.24151072 50.35036445 48.27178682 46 49 C46 49.66 46 50.32 46 51 C43.09399739 52.25664978 41.20395416 53 38 53 C38.33 53.66 38.66 54.32 39 55 C40.37973922 70.42164216 40.37973922 70.42164216 36.5 75.5 C33.93954961 77.77262458 32.70433317 78.06301096 29.1875 78.8125 C23.17713745 78.2913703 18.13724989 74.13724989 14 70 C10.26215026 70.31690465 7.7409923 72.44744116 4.75 74.5625 C-0.26502132 77.81657258 -3.08828633 79.14085702 -9 78 C-11.74526713 75.90492772 -13.07880004 73.88179993 -15 71 C-15.16888242 68.2721195 -15.23325126 65.66090398 -15.1875 62.9375 C-15.18685547 62.20466797 -15.18621094 61.47183594 -15.18554688 60.71679688 C-15.140625 55.28125 -15.140625 55.28125 -14 53 C-14.86625 52.9175 -15.7325 52.835 -16.625 52.75 C-23.32542419 51.26101685 -28.3616439 46.7120949 -32 41 C-32.6875 37.875 -32.6875 37.875 -32 35 C-29.8125 32.375 -29.8125 32.375 -27 30 C-26.175 29.278125 -25.35 28.55625 -24.5 27.8125 C-21.01752913 25.28770862 -18.31923177 24 -14 24 C-14.33 23.34 -14.66 22.68 -15 22 C-15.17778623 19.40024068 -15.27753022 16.85175193 -15.3125 14.25 C-15.34150391 13.54617187 -15.37050781 12.84234375 -15.40039062 12.1171875 C-15.46264141 6.96473816 -14.38258227 4.09173217 -11 0 C-7.43940442 -1.78029779 -3.75965761 -0.96910429 0 0 Z " fill="#00C3E6" transform="translate(62,18)"/>
<path d="M0 0 C0.99 0.33 1.98 0.66 3 1 C3.33 3.97 3.66 6.94 4 10 C4.66 10 5.32 10 6 10 C6 10.99 6 11.98 6 13 C7.65 13 9.3 13 11 13 C10.690625 13.928125 10.38125 14.85625 10.0625 15.8125 C9.23142659 21.01203621 12.57340655 24.58653572 15.43359375 28.64453125 C17 31 17 31 17 33 C19.56590557 32.96683318 22.12332066 32.89953481 24.6875 32.8125 C25.40873047 32.80669922 26.12996094 32.80089844 26.87304688 32.79492188 C31.14232808 32.61947196 32.61448151 32.32567086 36.01953125 29.44921875 C36.67308594 28.64097656 37.32664063 27.83273438 38 27 C38.495 28.485 38.495 28.485 39 30 C38.67 30.66 38.34 31.32 38 32 C40.31 32 42.62 32 45 32 C44.67 32.99 44.34 33.98 44 35 C42.14453125 35.4140625 42.14453125 35.4140625 39.8125 35.625 C36.57840773 36.20362354 35.30888313 36.65985339 33.0703125 39.125 C31.60233367 41.37262308 30.24700224 43.62336045 29 46 C30.29017414 46.98113243 31.58219106 47.95984199 32.875 48.9375 C33.59429687 49.48277344 34.31359375 50.02804688 35.0546875 50.58984375 C38.51708243 53.09973245 40.75645471 53.09225098 45 53 C45.66 51.68 46.32 50.36 47 49 C47.66 49 48.32 49 49 49 C49 45.04 49 41.08 49 37 C49.66 37 50.32 37 51 37 C51.13559675 39.56428515 51.23433188 42.12135216 51.3125 44.6875 C51.35439453 45.40873047 51.39628906 46.12996094 51.43945312 46.87304688 C51.53432416 51.02839832 51.34086539 52.55600098 48.71484375 55.9765625 C45.79614051 58.15194132 43.8498832 58.78178969 40.1953125 58.56640625 C35.06029507 57.2415352 30.69763486 53.69763486 27 50 C23.26215026 50.31690465 20.7409923 52.44744116 17.75 54.5625 C12.73497868 57.81657258 9.91171367 59.14085702 4 58 C1.25473287 55.90492772 -0.07880004 53.88179993 -2 51 C-2.16888242 48.2721195 -2.23325126 45.66090398 -2.1875 42.9375 C-2.18685547 42.20466797 -2.18621094 41.47183594 -2.18554688 40.71679688 C-2.140625 35.28125 -2.140625 35.28125 -1 33 C-1.86625 32.9175 -2.7325 32.835 -3.625 32.75 C-10.32542419 31.26101685 -15.3616439 26.7120949 -19 21 C-19.6875 17.875 -19.6875 17.875 -19 15 C-16.8125 12.375 -16.8125 12.375 -14 10 C-13.175 9.278125 -12.35 8.55625 -11.5 7.8125 C-7.54167181 4.94271206 -4.90956624 4 0 4 C0 2.68 0 1.36 0 0 Z " fill="#00C5E8" transform="translate(49,38)"/>
<path d="M0 0 C4.00125 -0.12375 8.0025 -0.2475 12.125 -0.375 C13.37555176 -0.42962402 14.62610352 -0.48424805 15.91455078 -0.54052734 C25.11143448 -0.67832502 25.11143448 -0.67832502 28.765625 2.67578125 C31.78474006 6.49450505 31.72818772 9.71015453 31.46484375 14.4375 C30.83838089 17.89094232 29.61285183 19.68575981 27 22 C24 24 24 24 20 24 C20.47050781 24.73605469 20.94101563 25.47210938 21.42578125 26.23046875 C22.04839844 27.20628906 22.67101562 28.18210937 23.3125 29.1875 C24.23482422 30.63189453 24.23482422 30.63189453 25.17578125 32.10546875 C25.77777344 33.06066406 26.37976563 34.01585937 27 35 C27.57105469 35.90363281 28.14210937 36.80726562 28.73046875 37.73828125 C30 40 30 40 30 42 C27.375 42.625 27.375 42.625 24 42 C20.7517278 37.89189104 18.55366949 33.08824692 16.1875 28.4375 C13.66438425 25.62602817 12.86979345 25.54853277 9.25 25.125 C7.14625 25.063125 7.14625 25.063125 5 25 C5 30.61 5 36.22 5 42 C3.35 42 1.7 42 0 42 C0 28.14 0 14.28 0 0 Z " fill="#00CCF0" transform="translate(143,18)"/>
<path d="M0 0 C3.68466564 0.39722198 5.66791741 1.14760455 8.41943359 3.63867188 C11.1791832 7.85575287 13.55000002 12.22449256 13.86083984 17.32226562 C12.12960815 22.6152428 9.81318687 26.47835062 5.86083984 30.32226562 C1.30710739 32.32678526 -3.53361325 32.3198192 -8.31445312 31.12548828 C-12.87897738 29.11621817 -14.83401171 24.8273127 -17.04931641 20.65429688 C-18.56238556 16.02831844 -17.70803467 13.8663536 -16.07275391 9.42773438 C-12.24374246 1.95966244 -8.2167135 -0.20255765 0 0 Z " fill="#000E11" transform="translate(76.13916015625,40.677734375)"/>
<path d="M0 0 C2.8463837 1.01543818 4.52495248 2.14371436 7 4 C7.9375 6.25 7.9375 6.25 8 8 C8.66 8 9.32 8 10 8 C11 11 11 11 11 19 C2.75 19 -5.5 19 -14 19 C-11.16666667 26.66666667 -11.16666667 26.66666667 -8 28 C-2.62276143 28.46244252 1.95899535 28.06810447 7 26 C7 27.32 7 28.64 7 30 C3.90507283 32.88859869 1.07548619 33.22125777 -3 33.3125 C-7.50845654 33.14552013 -11.03192787 32.95685805 -14.37109375 29.63671875 C-18.93443226 24.42701501 -19.29396114 20.39000455 -19.21484375 13.7265625 C-18.82090947 8.72717836 -17.10072211 5.99333459 -13.4375 2.6875 C-8.95397015 -0.4164822 -5.37073979 -0.63958239 0 0 Z " fill="#00CAEE" transform="translate(198,28)"/>
<path d="M0 0 C3.0625 2.0625 3.0625 2.0625 4.0625 3.0625 C4.15008003 5.06214982 4.16946576 7.0648611 4.16015625 9.06640625 C4.15693359 10.28134766 4.15371094 11.49628906 4.15039062 12.74804688 C4.14201172 14.02744141 4.13363281 15.30683594 4.125 16.625 C4.12048828 17.90826172 4.11597656 19.19152344 4.11132812 20.51367188 C4.09949545 23.69666022 4.08301068 26.87955762 4.0625 30.0625 C2.7425 30.0625 1.4225 30.0625 0.0625 30.0625 C0.0625 29.4025 0.0625 28.7425 0.0625 28.0625 C-0.741875 28.5575 -1.54625 29.0525 -2.375 29.5625 C-6.68083724 31.3754841 -10.32013829 31.70893064 -14.9375 31.0625 C-18.78566967 29.4857229 -20.25708559 27.92745315 -21.9375 24.0625 C-22.97198276 17.54525862 -22.97198276 17.54525862 -20.6484375 14.21484375 C-17.65540543 11.32431277 -15.08521261 9.68657975 -10.875 9.5 C-6.94114558 10.0619792 -4.32563958 11.02961625 -0.9375 13.0625 C-1.205625 11.78375 -1.47375 10.505 -1.75 9.1875 C-1.90082031 8.46820313 -2.05164063 7.74890625 -2.20703125 7.0078125 C-2.86058838 4.69203451 -2.86058838 4.69203451 -5.9375 3.0625 C-10.70615413 3.37015511 -14.57884159 4.01937887 -18.9375 6.0625 C-19.2675 4.7425 -19.5975 3.4225 -19.9375 2.0625 C-18.6175 1.7325 -17.2975 1.4025 -15.9375 1.0625 C-15.9375 0.4025 -15.9375 -0.2575 -15.9375 -0.9375 C-10.39300094 -2.78566635 -5.07557156 -2.88242335 0 0 Z " fill="#00B9DA" transform="translate(236.9375,29.9375)"/>
<path d="M0 0 C1.32 0 2.64 0 4 0 C4.33 0.66 4.66 1.32 5 2 C5.99 1.34 6.98 0.68 8 0 C14.94677871 -0.67226891 14.94677871 -0.67226891 18.9375 1.875 C22.32230986 5.36237986 22.38599822 8.03586938 22.36328125 12.73828125 C21.7918883 16.29566317 19.7487971 17.85459738 17 20 C16.67 20.33 16.34 20.66 16 21 C11.45049584 21.26247139 8.11560195 20.99544337 4 19 C4 21.97 4 24.94 4 28 C2.68 28 1.36 28 0 28 C0 18.76 0 9.52 0 0 Z " fill="#B8B8B8" transform="translate(301,79)"/>
<path d="M0 0 C2.206875 -0.061875 4.41375 -0.12375 6.6875 -0.1875 C8.54955078 -0.23970703 8.54955078 -0.23970703 10.44921875 -0.29296875 C14.21666932 0.01787701 16.02794917 0.7227143 19 3 C20.55024464 6.10048928 20.28992015 8.57894218 20 12 C18.20437595 14.75329021 16.94745078 16.52627461 14 18 C9.33091139 18.13996069 4.67201378 18.04247285 0 18 C0 12.06 0 6.12 0 0 Z " fill="#001216" transform="translate(148,21)"/>
<path d="M0 0 C1.6645214 0.9593881 3.26739605 2.02422776 4.85546875 3.10546875 C4.52546875 4.42546875 4.19546875 5.74546875 3.85546875 7.10546875 C-0.01953125 6.23046875 -0.01953125 6.23046875 -1.14453125 5.10546875 C-5.78240285 4.59014968 -9.8128749 4.16356548 -13.70703125 6.91796875 C-16.38958969 11.00012289 -16.97306603 15.33238794 -16.14453125 20.10546875 C-14.40545537 23.12938427 -12.30955803 25.52295536 -9.14453125 27.10546875 C-5.61434328 27.25895518 -2.52925173 27.14692121 0.85546875 26.10546875 C0.85546875 25.44546875 0.85546875 24.78546875 0.85546875 24.10546875 C1.84546875 24.10546875 2.83546875 24.10546875 3.85546875 24.10546875 C4.18546875 25.42546875 4.51546875 26.74546875 4.85546875 28.10546875 C0.50462261 31.67539379 -2.40319713 32.65202463 -8.0390625 32.359375 C-13.60561605 31.68808376 -16.52086001 29.31676235 -20.14453125 25.10546875 C-22.48624926 20.97958463 -22.71105328 16.7527198 -22.14453125 12.10546875 C-20.46806898 6.89961222 -18.31138674 3.64729592 -14.14453125 0.10546875 C-9.497499 -1.443542 -4.61032756 -1.92306924 0 0 Z " fill="#00C0E3" transform="translate(271.14453125,28.89453125)"/>
<path d="M0 0 C0.85207031 -0.04898438 1.70414063 -0.09796875 2.58203125 -0.1484375 C6.48306832 0.63527909 7.85678602 2.19411454 10.1875 5.375 C10.76369227 8.18174118 10.66553667 10.83772259 10.5 13.6875 C10.47744141 14.42806641 10.45488281 15.16863281 10.43164062 15.93164062 C10.3730815 17.74697357 10.28340886 19.56125681 10.1875 21.375 C8.8675 21.375 7.5475 21.375 6.1875 21.375 C6.1875 20.715 6.1875 20.055 6.1875 19.375 C5.1975 20.035 4.2075 20.695 3.1875 21.375 C-0.85114659 21.69552751 -3.5958056 21.89209512 -7.3125 20.3125 C-8.8125 18.375 -8.8125 18.375 -9.3125 14.875 C-8.8125 11.375 -8.8125 11.375 -7.109375 9.66796875 C-4.3592664 8.1198634 -2.69308752 8.06392418 0.4375 8.1875 C1.32953125 8.21457031 2.2215625 8.24164063 3.140625 8.26953125 C3.81609375 8.30433594 4.4915625 8.33914062 5.1875 8.375 C5.1875 7.385 5.1875 6.395 5.1875 5.375 C1.14608806 4.74105303 -2.7190307 4.25095548 -6.8125 4.375 C-6.8125 3.385 -6.8125 2.395 -6.8125 1.375 C-4.40736979 0.17243489 -2.68396436 0.1046223 0 0 Z " fill="#BABABA" transform="translate(207.8125,78.625)"/>
<path d="M0 0 C0.85207031 -0.04898438 1.70414063 -0.09796875 2.58203125 -0.1484375 C6.48306832 0.63527909 7.85678602 2.19411454 10.1875 5.375 C10.76369227 8.18174118 10.66553667 10.83772259 10.5 13.6875 C10.47744141 14.42806641 10.45488281 15.16863281 10.43164062 15.93164062 C10.3730815 17.74697357 10.28340886 19.56125681 10.1875 21.375 C8.8675 21.375 7.5475 21.375 6.1875 21.375 C6.1875 20.715 6.1875 20.055 6.1875 19.375 C5.1975 20.035 4.2075 20.695 3.1875 21.375 C-0.85114659 21.69552751 -3.5958056 21.89209512 -7.3125 20.3125 C-8.8125 18.375 -8.8125 18.375 -9.3125 14.875 C-8.8125 11.375 -8.8125 11.375 -7.109375 9.66796875 C-4.3592664 8.1198634 -2.69308752 8.06392418 0.4375 8.1875 C1.32953125 8.21457031 2.2215625 8.24164063 3.140625 8.26953125 C3.81609375 8.30433594 4.4915625 8.33914062 5.1875 8.375 C5.1875 7.385 5.1875 6.395 5.1875 5.375 C1.14608806 4.74105303 -2.7190307 4.25095548 -6.8125 4.375 C-6.8125 3.385 -6.8125 2.395 -6.8125 1.375 C-4.40736979 0.17243489 -2.68396436 0.1046223 0 0 Z " fill="#BABABA" transform="translate(161.8125,78.625)"/>
<path d="M0 0 C3.12575247 1.74714548 4.62262843 3.70906579 6 7 C7.36281736 20.27436527 7.36281736 20.27436527 5 25 C5.825 25.226875 6.65 25.45375 7.5 25.6875 C13.13719453 27.80144795 19.39584019 31.04428026 23 36 C23.71653779 39.22442005 23.59651697 41.05072548 21.82421875 43.87109375 C18.97072522 47.4176839 16.52427959 49.80239658 12 51 C11.67 49.68 11.34 48.36 11 47 C11.969375 46.360625 12.93875 45.72125 13.9375 45.0625 C16.76036269 43.3034741 16.76036269 43.3034741 18 42 C18.50135199 39.62778044 18.50135199 39.62778044 18 37 C13.80082025 32.67357238 8.58373811 30.14093117 2.5625 29.8125 C1.716875 29.874375 0.87125 29.93625 0 30 C0 29.01 0 28.02 0 27 C-0.99 26.67 -1.98 26.34 -3 26 C-2.34 26 -1.68 26 -1 26 C-1 25.34 -1 24.68 -1 24 C-3.31 23.67 -5.62 23.34 -8 23 C-4.64998162 21.88332721 -2.40745188 22.23713764 1 23 C1.05397335 20.5622037 1.09365616 18.12560315 1.125 15.6875 C1.14175781 14.99720703 1.15851563 14.30691406 1.17578125 13.59570312 C1.21217794 9.82864604 1.14378864 8.21568296 -1 5 C-2.32594105 4.63837971 -3.65938457 4.30271961 -5 4 C-5.33 3.34 -5.66 2.68 -6 2 C-8.02463255 1.34786708 -8.02463255 1.34786708 -10 1 C-6.2727156 -0.24242813 -3.91859249 -0.53133458 0 0 Z " fill="#00C0E3" transform="translate(95,17)"/>
<path d="M0 0 C1.08203125 1.70703125 1.08203125 1.70703125 1.8125 3.8125 C2.19341797 4.84310547 2.19341797 4.84310547 2.58203125 5.89453125 C3.32614565 9.64292061 1.77129099 12.77054525 0.4375 16.25 C0.16808594 16.95640625 -0.10132812 17.6628125 -0.37890625 18.390625 C-0.58386719 18.92171875 -0.78882812 19.4528125 -1 20 C-7.8198944 19.71583773 -12.20560484 16.79439516 -17 12 C-17.5 9.8125 -17.5 9.8125 -17 7 C-12.83804343 2.09225931 -6.59690661 -2.63344256 0 0 Z " fill="#000A0C" transform="translate(51,47)"/>
<path d="M0 0 C10.37757848 -0.42600897 10.37757848 -0.42600897 14.35546875 3.0703125 C16.06281458 5.31626433 17.59661716 7.553963 19 10 C16.11658466 14.21422242 13.95696581 15.76075855 9 17 C9 17.66 9 18.32 9 19 C6.36 19 3.72 19 1 19 C-1.21747156 15.44152785 -1.23889479 12.51461655 -1.1875 8.375 C-1.18105469 7.22773437 -1.17460938 6.08046875 -1.16796875 4.8984375 C-1 2 -1 2 0 0 Z " fill="#000809" transform="translate(52,73)"/>
<path d="M0 0 C8.08095819 0.12826918 12.06925173 2.63007899 18 8 C17.03567924 9.68756133 16.0268343 11.3497306 15 13 C14.525625 13.9075 14.05125 14.815 13.5625 15.75 C9.43273673 19.3761336 4.34964941 19.11330574 -1 19 C-2.97299514 17.02700486 -2.18499989 13.31511482 -2.1875 10.625 C-2.19974609 9.93921875 -2.21199219 9.2534375 -2.22460938 8.546875 C-2.23552331 4.80703203 -2.1266842 3.1900263 0 0 Z " fill="#00080A" transform="translate(53,21)"/>
<path d="M0 0 C2.21162433 2.20651666 2.94307221 3.53915596 3.328125 6.65625 C3.30234375 7.5946875 3.2765625 8.533125 3.25 9.5 C3.23453125 10.4384375 3.2190625 11.376875 3.203125 12.34375 C3.02359478 14.69145284 2.65896381 16.7467689 2 19 C-8.37757848 19.42600897 -8.37757848 19.42600897 -12.35546875 15.9296875 C-14.06281458 13.68373567 -15.59661716 11.446037 -17 9 C-12.4943279 2.7613771 -8.03281416 -1.21250025 0 0 Z " fill="#00080A" transform="translate(94,21)"/>
<path d="M0 0 C6.8198944 0.28416227 11.20560484 3.20560484 16 8 C16.4375 10.25 16.4375 10.25 16 13 C12.09201989 17.0032967 8.23995315 19.12152623 3 21 C2.01 21 1.02 21 0 21 C-2.74028691 14.97136879 -3.62427794 10.49711175 -2 4 C-1.37279242 2.64765652 -0.71568706 1.30767513 0 0 Z " fill="#00080A" transform="translate(98,46)"/>
<path d="M0 0 C1.0209375 0.0309375 1.0209375 0.0309375 2.0625 0.0625 C3.6844837 5.72636244 3.94151132 11.62080188 1.9375 17.1875 C0.0625 19.0625 0.0625 19.0625 -2.5625 19.75 C-8.51636265 18.53717613 -13.57403569 15.10769646 -16.9375 10.0625 C-11.20202394 1.43313633 -11.20202394 1.43313633 -6.3125 0 C-4.20869404 0.03895937 -2.10369056 0.04475937 0 0 Z " fill="#000607" transform="translate(93.9375,72.9375)"/>
<path d="M0 0 C1.32 0 2.64 0 4 0 C4 2.64 4 5.28 4 8 C6.31 8 8.62 8 11 8 C11 9.32 11 10.64 11 12 C8.69 12 6.38 12 4 12 C4.33 19.26 4.66 26.52 5 34 C6.32 34.33 7.64 34.66 9 35 C9.99 35.33 10.98 35.66 12 36 C11.67 37.32 11.34 38.64 11 40 C7.27985732 40.2917759 4.68727077 40.32388622 1.28125 38.71875 C-2.38158673 34.35345143 -1.52907227 29.74760381 -1.3125 24.25 C-1.27866211 22.63158203 -1.27866211 22.63158203 -1.24414062 20.98046875 C-1.1852565 18.3189065 -1.10307001 15.66015772 -1 13 C-2.65 13 -4.3 13 -6 13 C-6 11.35 -6 9.7 -6 8 C-4.02 8 -2.04 8 0 8 C0 5.36 0 2.72 0 0 Z " fill="#00C0E3" transform="translate(285,21)"/>
<path d="M0 0 C-0.99 0.66 -1.98 1.32 -3 2 C-2.01 2.66 -1.02 3.32 0 4 C-1.5778125 4.61875 -1.5778125 4.61875 -3.1875 5.25 C-6.60550439 6.73669297 -9.37168302 8.29203705 -12 11 C-12.83333333 13.5 -12.83333333 13.5 -12 16 C-9.83132801 18.23559978 -9.83132801 18.23559978 -7 20 C-6.2575 20.556875 -5.515 21.11375 -4.75 21.6875 C-0.92541407 23.51287056 2.80753631 23.73511667 7 24 C7.33 22.35 7.66 20.7 8 19 C8.66 19 9.32 19 10 19 C13 24.75 13 24.75 13 27 C11.02 27 9.04 27 7 27 C7 27.66 7 28.32 7 29 C7.66 29.33 8.32 29.66 9 30 C7.68 30 6.36 30 5 30 C4.67 34.62 4.34 39.24 4 44 C3.67 44 3.34 44 3 44 C2.67 40.37 2.34 36.74 2 33 C1.67 37.29 1.34 41.58 1 46 C0.67 46 0.34 46 0 46 C-0.02690844 43.37493198 -0.04679404 40.75013827 -0.0625 38.125 C-0.07087891 37.37863281 -0.07925781 36.63226563 -0.08789062 35.86328125 C-0.11328125 30.2265625 -0.11328125 30.2265625 1 28 C0.13375 27.9175 -0.7325 27.835 -1.625 27.75 C-8.32542419 26.26101685 -13.3616439 21.7120949 -17 16 C-17.6875 12.875 -17.6875 12.875 -17 10 C-14.8125 7.375 -14.8125 7.375 -12 5 C-10.7625 3.9171875 -10.7625 3.9171875 -9.5 2.8125 C-3.32653061 -1.66326531 -3.32653061 -1.66326531 0 0 Z " fill="#00BADC" transform="translate(47,43)"/>
<path d="M0 0 C3.125 1.5 3.125 1.5 5 3 C4.67 3.99 4.34 4.98 4 6 C2.96875 5.67 1.9375 5.34 0.875 5 C-2.48992955 4.03566043 -5.48384861 3.74884633 -9 4 C-10.29633621 5.06645115 -10.29633621 5.06645115 -10.0625 7.5625 C-10.041875 8.366875 -10.02125 9.17125 -10 10 C-9.09636719 10.32613281 -8.19273437 10.65226562 -7.26171875 10.98828125 C-5.49248047 11.64376953 -5.49248047 11.64376953 -3.6875 12.3125 C-2.51574219 12.74175781 -1.34398437 13.17101562 -0.13671875 13.61328125 C2.65289675 14.84654838 4.21758777 15.57967181 6 18 C6.68309469 21.92779445 6.31362682 23.51910554 4.125 26.875 C-0.26084666 29.85737573 -3.84044371 29.90532587 -9 29 C-11.64699093 27.9064736 -13.6285281 26.64971958 -16 25 C-15.505 23.515 -15.505 23.515 -15 22 C-14.34 22.309375 -13.68 22.61875 -13 22.9375 C-8.33740288 24.58883648 -3.79873113 25.59957704 1 24 C1 22.35 1 20.7 1 19 C-0.010625 18.566875 -1.02125 18.13375 -2.0625 17.6875 C-2.69671875 17.41292969 -3.3309375 17.13835937 -3.984375 16.85546875 C-5.29937004 16.29736039 -6.62222887 15.75733074 -7.953125 15.23828125 C-11.44900139 13.85021268 -12.85509392 13.21735911 -15 10 C-14.7769409 3.75434531 -14.7769409 3.75434531 -12.25390625 1.3046875 C-8.36502541 -0.9464151 -4.36150976 -0.54959251 0 0 Z " fill="#BDBDBD" transform="translate(239,71)"/>
<path d="M0 0 C3.0625 2.0625 3.0625 2.0625 4.0625 3.0625 C4.15008003 5.06214982 4.16946576 7.0648611 4.16015625 9.06640625 C4.15693359 10.28134766 4.15371094 11.49628906 4.15039062 12.74804688 C4.14201172 14.02744141 4.13363281 15.30683594 4.125 16.625 C4.12048828 17.90826172 4.11597656 19.19152344 4.11132812 20.51367188 C4.09949545 23.69666022 4.08301068 26.87955762 4.0625 30.0625 C2.7425 30.0625 1.4225 30.0625 0.0625 30.0625 C0.0625 29.0725 0.0625 28.0825 0.0625 27.0625 C-0.5975 27.0625 -1.2575 27.0625 -1.9375 27.0625 C-1.85371094 26.44761719 -1.76992187 25.83273438 -1.68359375 25.19921875 C-1.58175781 24.39097656 -1.47992188 23.58273438 -1.375 22.75 C-1.27058594 21.94949219 -1.16617188 21.14898437 -1.05859375 20.32421875 C-0.78994822 17.89432884 -0.78994822 17.89432884 -1.9375 15.0625 C-1.2775 15.0625 -0.6175 15.0625 0.0625 15.0625 C0.05133085 8.93467394 0.05133085 8.93467394 -3 3.9375 C-8.58526762 2.27380326 -13.73292576 3.62285582 -18.9375 6.0625 C-19.2675 4.7425 -19.5975 3.4225 -19.9375 2.0625 C-18.6175 1.7325 -17.2975 1.4025 -15.9375 1.0625 C-15.9375 0.4025 -15.9375 -0.2575 -15.9375 -0.9375 C-10.39300094 -2.78566635 -5.07557156 -2.88242335 0 0 Z " fill="#00CAEF" transform="translate(236.9375,29.9375)"/>
<path d="M0 0 C3 2.0625 3 2.0625 5 5 C5.06584389 8.81894541 4.85572029 10.97971812 2.375 13.9375 C-1.01168643 15.45259656 -3.33417263 15.52368962 -7 15 C-9.96135546 12.41830549 -10.86756104 10.81118865 -11.5 6.9375 C-11 4 -11 4 -9.4375 1.625 C-6.02544071 -0.64970619 -4.02388226 -0.63534983 0 0 Z " fill="#00CEF3" transform="translate(77,49)"/>
<path d="M0 0 C3.25501032 0.63166537 4.86060019 1.87474593 6.97265625 4.3828125 C7.53515625 7.4453125 7.53515625 7.4453125 6.97265625 10.3828125 C4.060884 13.18870212 1.90923016 13.81428071 -2.08984375 13.8203125 C-2.94707031 13.83964844 -3.80429688 13.85898437 -4.6875 13.87890625 C-7.02734375 13.3828125 -7.02734375 13.3828125 -8.80859375 11.51171875 C-10.34310161 8.83124828 -10.55986552 7.42579407 -10.02734375 4.3828125 C-7.41476788 0.35509136 -4.74373297 -0.26600372 0 0 Z " fill="#000D10" transform="translate(230.02734375,43.6171875)"/>
<path d="M0 0 C2.77335385 1.62725051 5.12494112 3.37263786 7 6 C7 7.65 7 9.3 7 11 C0.4 11 -6.2 11 -13 11 C-12 4 -12 4 -9.875 1.5625 C-6.13308636 -0.47114871 -4.20970279 -0.72581083 0 0 Z " fill="#001418" transform="translate(197,32)"/>
<path d="M0 0 C2.45811625 3.68717438 2.31118164 5.64345704 2 10 C0 13 0 13 -3.875 13.9375 C-6.94097146 14.1995012 -7.77125189 14.13724886 -10.5 12.5 C-12.55619196 9.0730134 -12.56158278 6.93107944 -12 3 C-8.85540137 -2.24099771 -5.33719896 -1.29125781 0 0 Z " fill="#040404" transform="translate(317,83)"/>
<path d="M0 0 C2.77063208 1.45101144 4.60763988 2.55364821 5.83203125 5.4921875 C5.85265625 6.0696875 5.87328125 6.6471875 5.89453125 7.2421875 C6.55453125 7.2421875 7.21453125 7.2421875 7.89453125 7.2421875 C8.89453125 10.2421875 8.89453125 10.2421875 8.89453125 18.2421875 C0.64453125 18.2421875 -7.60546875 18.2421875 -16.10546875 18.2421875 C-16.10546875 17.5821875 -16.10546875 16.9221875 -16.10546875 16.2421875 C-8.18546875 16.2421875 -0.26546875 16.2421875 7.89453125 16.2421875 C7.89453125 15.2521875 7.89453125 14.2621875 7.89453125 13.2421875 C6.57453125 13.5721875 5.25453125 13.9021875 3.89453125 14.2421875 C3.55421875 12.8809375 3.55421875 12.8809375 3.20703125 11.4921875 C1.67751002 7.7048016 0.32515914 6.39630269 -3.10546875 4.2421875 C-5.79054204 3.45272141 -5.79054204 3.45272141 -8.10546875 3.2421875 C-6.78546875 2.9121875 -5.46546875 2.5821875 -4.10546875 2.2421875 C-4.10546875 1.5821875 -4.10546875 0.9221875 -4.10546875 0.2421875 C-10.13827666 1.8588223 -14.05627775 3.40928212 -18.10546875 8.2421875 C-18.76546875 7.9121875 -19.42546875 7.5821875 -20.10546875 7.2421875 C-14.6543296 0.27684303 -9.0590113 -3.26057179 0 0 Z " fill="#00ABCA" transform="translate(200.10546875,28.7578125)"/>
<path d="M0 0 C2.5 1.5 2.5 1.5 4 3 C3.67 3.99 3.34 4.98 3 6 C2.34 5.649375 1.68 5.29875 1 4.9375 C-3.0513091 3.67146591 -5.83374555 4.29385518 -10 5 C-10.62427403 10.9023685 -10.62427403 10.9023685 -8.4375 16.125 C-5.02717438 17.34921945 -2.5162207 16.69068621 1 16 C2.32 16 3.64 16 5 16 C2.12009172 19.59988535 0.69140197 20.89025366 -3.9375 21.625 C-8.61348379 21.34160704 -10.79528664 19.2828771 -14 16 C-15.57455739 12.85088521 -15.34799118 10.47991184 -15 7 C-11.26583558 0.7299478 -7.12150637 -0.8444474 0 0 Z " fill="#BEBEBE" transform="translate(264,79)"/>
<path d="M0 0 C0.99 0.33 1.98 0.66 3 1 C3.33 3.97 3.66 6.94 4 10 C4.66 10 5.32 10 6 10 C6 10.99 6 11.98 6 13 C7.65 13 9.3 13 11 13 C10.690625 14.5778125 10.690625 14.5778125 10.375 16.1875 C10.00036896 19.99624887 10.28369933 21.66835752 12 25 C11.34 25 10.68 25 10 25 C10.33 26.65 10.66 28.3 11 30 C8 26.25 8 26.25 8 24 C7.34 24 6.68 24 6 24 C5.67 25.65 5.34 27.3 5 29 C3.68 29.33 2.36 29.66 1 30 C1.31182069 28.58318366 1.62448737 27.16655349 1.9375 25.75 C2.11152344 24.96109375 2.28554688 24.1721875 2.46484375 23.359375 C3 21 3 21 3.65625 18.96875 C4.09505295 16.45560585 3.53622721 15.0869453 2.5625 12.75 C2.27503906 12.04359375 1.98757812 11.3371875 1.69140625 10.609375 C1.46324219 10.07828125 1.23507813 9.5471875 1 9 C-1.31 8.67 -3.62 8.34 -6 8 C-4.71034824 6.62437146 -3.37310707 5.29233607 -2 4 C-1.34 4 -0.68 4 0 4 C0 2.68 0 1.36 0 0 Z " fill="#00C9EE" transform="translate(49,38)"/>
<path d="M0 0 C1.32 0 2.64 0 4 0 C4 2.31 4 4.62 4 7 C6.31 7 8.62 7 11 7 C11 7.99 11 8.98 11 10 C8.69 10 6.38 10 4 10 C4 14.62 4 19.24 4 24 C5.98 24.33 7.96 24.66 10 25 C10 25.99 10 26.98 10 28 C6.6875 28.25 6.6875 28.25 3 28 C0.33915287 25.58104807 0.01338843 24.15780496 -0.29296875 20.546875 C-0.25816406 19.29390625 -0.22335937 18.0409375 -0.1875 16.75 C-0.16042969 15.48671875 -0.13335937 14.2234375 -0.10546875 12.921875 C-0.07066406 11.95765625 -0.03585937 10.9934375 0 10 C-0.99 10 -1.98 10 -3 10 C-3 9.01 -3 8.02 -3 7 C-2.01 7 -1.02 7 0 7 C0 4.69 0 2.38 0 0 Z " fill="#BABABA" transform="translate(329,72)"/>
<path d="M0 0 C2.32421875 0.12890625 2.32421875 0.12890625 5 1 C6.58203125 3.65234375 6.58203125 3.65234375 7.8125 6.9375 C8.23144531 8.01902344 8.65039062 9.10054687 9.08203125 10.21484375 C10 13 10 13 10 15 C10.66 15 11.32 15 12 15 C12.18175781 14.41992188 12.36351562 13.83984375 12.55078125 13.2421875 C14.0418106 8.60852707 15.68333576 4.30237645 18 0 C19.32 0.33 20.64 0.66 22 1 C21.60167969 1.85722656 21.20335937 2.71445313 20.79296875 3.59765625 C18.11910961 9.36824764 15.45594921 15.13301021 13 21 C11.68 21 10.36 21 9 21 C7.68521674 18.06351671 6.3735705 15.12564261 5.0625 12.1875 C4.68931641 11.35412109 4.31613281 10.52074219 3.93164062 9.66210938 C3.39506836 8.45844727 3.39506836 8.45844727 2.84765625 7.23046875 C2.51773682 6.49207764 2.18781738 5.75368652 1.84790039 4.99291992 C1 3 1 3 0 0 Z " fill="#BCBCBC" transform="translate(175,79)"/>
<path d="M0 0 C0.99 0 1.98 0 3 0 C3.14553599 3.89543877 3.23415059 7.79017651 3.3125 11.6875 C3.35439453 12.79029297 3.39628906 13.89308594 3.43945312 15.02929688 C3.56284551 23.1978725 3.56284551 23.1978725 0.73046875 27.234375 C-2.61199484 29.39573915 -4.215581 29.67402619 -8.0625 29.43359375 C-11.11826913 28.74974219 -12.88934344 27.24257259 -15 25 C-15 24.34 -15 23.68 -15 23 C-14.01 22.67 -13.02 22.34 -12 22 C-11.401875 22.495 -10.80375 22.99 -10.1875 23.5 C-8.00240707 25.3269152 -8.00240707 25.3269152 -4.8125 24.8125 C-3.884375 24.544375 -2.95625 24.27625 -2 24 C-0.76939579 21.53879159 -0.7942277 19.74223134 -0.68359375 16.9921875 C-0.64169922 16.00605469 -0.59980469 15.01992187 -0.55664062 14.00390625 C-0.51732422 12.97136719 -0.47800781 11.93882813 -0.4375 10.875 C-0.39431641 9.83472656 -0.35113281 8.79445313 -0.30664062 7.72265625 C-0.2003712 5.14857472 -0.09833417 2.57439492 0 0 Z " fill="#C8C8C8" transform="translate(145,71)"/>
<path d="M0 0 C1.32 0 2.64 0 4 0 C4.33 0.99 4.66 1.98 5 3 C5.4125 2.505 5.825 2.01 6.25 1.5 C8 0 8 0 12 0 C12 0.99 12 1.98 12 3 C11.030625 3.45375 10.06125 3.9075 9.0625 4.375 C5.92920418 5.65786221 5.92920418 5.65786221 5 8 C4.77049681 10.204364 4.58924067 12.41392173 4.4375 14.625 C4.35371094 15.81351563 4.26992188 17.00203125 4.18359375 18.2265625 C4.12300781 19.14179687 4.06242187 20.05703125 4 21 C2.68 21 1.36 21 0 21 C0 14.07 0 7.14 0 0 Z " fill="#B3B3B3" transform="translate(273,79)"/>
<path d="M0 0 C1.11375 0.185625 1.11375 0.185625 2.25 0.375 C1.92 1.365 1.59 2.355 1.25 3.375 C0.59 3.375 -0.07 3.375 -0.75 3.375 C-1.90570704 6.84212111 -2.07835293 9.9164956 -2.3125 13.5625 C-2.39628906 14.83480469 -2.48007812 16.10710938 -2.56640625 17.41796875 C-2.62699219 18.39378906 -2.68757813 19.36960937 -2.75 20.375 C-3.41 20.375 -4.07 20.375 -4.75 20.375 C-5.08 21.695 -5.41 23.015 -5.75 24.375 C-7.29958148 21.27583704 -7.01681073 18.02428151 -7.0625 14.625 C-7.09150391 13.92117187 -7.12050781 13.21734375 -7.15039062 12.4921875 C-7.21520481 7.12756738 -6.23219389 0.84984462 0 0 Z " fill="#00B7D9" transform="translate(53.75,17.625)"/>
<path d="M0 0 C0.33 0 0.66 0 1 0 C1.07347656 1.21236328 1.07347656 1.21236328 1.1484375 2.44921875 C1.22320312 3.51785156 1.29796875 4.58648437 1.375 5.6875 C1.44460937 6.74324219 1.51421875 7.79898438 1.5859375 8.88671875 C1.98760089 11.90677269 2.74069019 14.24078054 4 17 C7.3 16.67 10.6 16.34 14 16 C13.01 18.475 13.01 18.475 12 21 C4.63803681 21.49079755 4.63803681 21.49079755 1.5625 19.125 C-1.27183103 15.2703098 -1.13471493 12.71238837 -1.125 7.9375 C-1.12757812 6.66777344 -1.13015625 5.39804688 -1.1328125 4.08984375 C-1 1 -1 1 0 0 Z " fill="#00C8EC" transform="translate(49,75)"/>
<path d="M0 0 C0.66 0 1.32 0 2 0 C2.13559675 2.56428515 2.23433188 5.12135216 2.3125 7.6875 C2.3753418 8.7693457 2.3753418 8.7693457 2.43945312 9.87304688 C2.5339996 14.01418243 2.32861678 15.56449748 -0.2578125 18.9921875 C-4.29370884 21.9472455 -6.12304 21.55965115 -11 21 C-11.66 20.34 -12.32 19.68 -13 19 C-11.68 19 -10.36 19 -9 19 C-8.67 18.34 -8.34 17.68 -8 17 C-6.7625 16.5359375 -6.7625 16.5359375 -5.5 16.0625 C-4.675 15.711875 -3.85 15.36125 -3 15 C-2.67 14.01 -2.34 13.02 -2 12 C-1.34 12 -0.68 12 0 12 C0 8.04 0 4.08 0 0 Z " fill="#00C3E6" transform="translate(98,75)"/>
<path d="M0 0 C2.70703125 2.03515625 2.70703125 2.03515625 5 5 C5.36771245 7.8387401 5.48630804 10.01820151 5.3125 12.8125 C5.27866211 13.85180664 5.27866211 13.85180664 5.24414062 14.91210938 C5.18562661 16.60901573 5.0959548 18.30479861 5 20 C4.34 20 3.68 20 3 20 C2.81824219 18.75283203 2.81824219 18.75283203 2.6328125 17.48046875 C2.46523437 16.39378906 2.29765625 15.30710937 2.125 14.1875 C1.88136719 12.56908203 1.88136719 12.56908203 1.6328125 10.91796875 C1.14867662 7.82678207 1.14867662 7.82678207 -1 5 C-2.32594105 4.63837971 -3.65938457 4.30271961 -5 4 C-5.33 3.34 -5.66 2.68 -6 2 C-8.02463255 1.34786708 -8.02463255 1.34786708 -10 1 C-6.36217368 -0.21260877 -3.82264001 -0.39544552 0 0 Z " fill="#00C5E8" transform="translate(95,17)"/>
<path d="M0 0 C0.66 0.33 1.32 0.66 2 1 C1.67 2.65 1.34 4.3 1 6 C-0.45635371 6.22174933 -1.91522956 6.42698698 -3.375 6.625 C-4.18710938 6.74101563 -4.99921875 6.85703125 -5.8359375 6.9765625 C-6.55007812 6.98429687 -7.26421875 6.99203125 -8 7 C-8.66 6.34 -9.32 5.68 -10 5 C-9.8125 2.9375 -9.8125 2.9375 -9 1 C-5.77390955 -0.07536348 -3.37822416 -0.14375422 0 0 Z " fill="#0B0B0B" transform="translate(212,90)"/>
<path d="M0 0 C0.66 0.33 1.32 0.66 2 1 C1.67 2.65 1.34 4.3 1 6 C-0.45635371 6.22174933 -1.91522956 6.42698698 -3.375 6.625 C-4.18710938 6.74101563 -4.99921875 6.85703125 -5.8359375 6.9765625 C-6.55007812 6.98429687 -7.26421875 6.99203125 -8 7 C-8.66 6.34 -9.32 5.68 -10 5 C-9.8125 2.9375 -9.8125 2.9375 -9 1 C-5.77390955 -0.07536348 -3.37822416 -0.14375422 0 0 Z " fill="#0B0B0B" transform="translate(166,90)"/>
<path d="M0 0 C0.99 0 1.98 0 3 0 C3 6.93 3 13.86 3 21 C2.01 21 1.02 21 0 21 C0 14.07 0 7.14 0 0 Z " fill="#D2D2D2" transform="translate(291,79)"/>
<path d="M0 0 C0.7734375 0.2165625 0.7734375 0.2165625 1.5625 0.4375 C4.18902145 1.09004275 4.18902145 1.09004275 7.6875 1.4375 C8.780625 1.623125 9.87375 1.80875 11 2 C11.33 2.66 11.66 3.32 12 4 C10.96875 3.938125 9.9375 3.87625 8.875 3.8125 C4.73643884 4.01275296 2.61135494 5.11224628 -1 7 C-1.99 6.67 -2.98 6.34 -4 6 C-4 5.01 -4 4.02 -4 3 C-2.68 2.67 -1.36 2.34 0 2 C0 1.34 0 0.68 0 0 Z " fill="#00BCDE" transform="translate(221,29)"/>
<path d="M0 0 C2.96175123 0.61277612 4.38058783 1.25372522 7 3 C6.67 4.32 6.34 5.64 6 7 C2.125 6.125 2.125 6.125 1 5 C-0.34747084 4.76924918 -1.70377565 4.58846937 -3.0625 4.4375 C-4.361875 4.293125 -5.66125 4.14875 -7 4 C-7 3.67 -7 3.34 -7 3 C-4.69 3 -2.38 3 0 3 C0 2.01 0 1.02 0 0 Z " fill="#00B1D1" transform="translate(269,29)"/>
<path d="M0 0 C0.33 1.32 0.66 2.64 1 4 C-4.625 8.875 -4.625 8.875 -8 10 C-8.33 8.68 -8.66 7.36 -9 6 C-6 4 -3 2 0 0 Z " fill="#00C8EC" transform="translate(115,58)"/>
<path d="M0 0 C0 0.66 0 1.32 0 2 C-1.8253125 2.5878125 -1.8253125 2.5878125 -3.6875 3.1875 C-7.8650991 4.73091139 -10.10823232 6.65639362 -13 10 C-13.33 9.01 -13.66 8.02 -14 7 C-13.06894211 6.01470572 -12.12987519 5.03697556 -11.1875 4.0625 C-10.66542969 3.51722656 -10.14335937 2.97195312 -9.60546875 2.41015625 C-6.63807041 -0.19624473 -3.76173709 -0.10166857 0 0 Z M-16 8 C-14 9 -14 9 -14 9 Z " fill="#00D2F8" transform="translate(196,29)"/>
<path d="M0 0 C0.66 0 1.32 0 2 0 C2.66 2.31 3.32 4.62 4 7 C1.36 7.33 -1.28 7.66 -4 8 C-2.87548273 5.0280615 -1.77706209 2.66559313 0 0 Z " fill="#00252C" transform="translate(91,62)"/>
<path d="M0 0 C0.33 0 0.66 0 1 0 C1.05382106 2.62527189 1.09358313 5.24944713 1.125 7.875 C1.14175781 8.62136719 1.15851563 9.36773437 1.17578125 10.13671875 C1.1933959 12.09194461 1.10320189 14.04742021 1 16 C0.34 16.66 -0.32 17.32 -1 18 C-1.33 17.01 -1.66 16.02 -2 15 C-2.99 15.495 -2.99 15.495 -4 16 C-3.67 12.04 -3.34 8.08 -3 4 C-2.67 4 -2.34 4 -2 4 C-2 6.97 -2 9.94 -2 13 C-1.34 13 -0.68 13 0 13 C0 8.71 0 4.42 0 0 Z " fill="#0092AC" transform="translate(100,24)"/>
<path d="M0 0 C0.66 0 1.32 0 2 0 C5 5.75 5 5.75 5 8 C3.02 8 1.04 8 -1 8 C-2.2077558 4.37673261 -1.54311128 3.35853631 0 0 Z " fill="#00252C" transform="translate(55,62)"/>
<path d="M0 0 C1.32 0.33 2.64 0.66 4 1 C2.68 3.97 1.36 6.94 0 10 C-0.99 10 -1.98 10 -3 10 C-3.33 9.34 -3.66 8.68 -4 8 C-3.22265625 6.0546875 -3.22265625 6.0546875 -2.0625 3.875 C-1.49208984 2.78832031 -1.49208984 2.78832031 -0.91015625 1.6796875 C-0.60980469 1.12539062 -0.30945313 0.57109375 0 0 Z " fill="#B6B6B6" transform="translate(193,79)"/>
<path d="M0 0 C0.99 0 1.98 0 3 0 C3.33 1.32 3.66 2.64 4 4 C2.02 5.32 0.04 6.64 -2 8 C-2.66 7.67 -3.32 7.34 -4 7 C-4 6.01 -4 5.02 -4 4 C-2.68 3.34 -1.36 2.68 0 2 C0 1.34 0 0.68 0 0 Z " fill="#00B8D9" transform="translate(272,53)"/>
<path d="M0 0 C2.31 0.33 4.62 0.66 7 1 C6.67 3.31 6.34 5.62 6 8 C5.34 8 4.68 8 4 8 C3.34 6.02 2.68 4.04 2 2 C1.34 2 0.68 2 0 2 C0 1.34 0 0.68 0 0 Z " fill="#002025" transform="translate(87,43)"/>
<path d="M0 0 C0.79921875 0.01804687 1.5984375 0.03609375 2.421875 0.0546875 C3.02515625 0.07789062 3.6284375 0.10109375 4.25 0.125 C4.25 0.455 4.25 0.785 4.25 1.125 C3.27160156 1.23714844 3.27160156 1.23714844 2.2734375 1.3515625 C-4.40808603 2.35674746 -7.4427331 3.91094006 -11.75 9.125 C-12.41 8.795 -13.07 8.465 -13.75 8.125 C-9.63227292 2.86345984 -7.06144799 -0.20768965 0 0 Z " fill="#00A5C3" transform="translate(193.75,27.875)"/>
<path d="M0 0 C0.66 0.33 1.32 0.66 2 1 C1.01 1.66 0.02 2.32 -1 3 C-0.01 3.66 0.98 4.32 2 5 C-0.64 5.99 -3.28 6.98 -6 8 C-6 7.01 -6 6.02 -6 5 C-6.66 4.67 -7.32 4.34 -8 4 C-6.71349294 3.30289269 -5.42059335 2.61757124 -4.125 1.9375 C-3.40570313 1.55464844 -2.68640625 1.17179687 -1.9453125 0.77734375 C-1.30335937 0.52082031 -0.66140625 0.26429687 0 0 Z " fill="#00A6C4" transform="translate(45,42)"/>
<path d="M0 0 C2.64 0 5.28 0 8 0 C7.34 1.32 6.68 2.64 6 4 C4.68 4 3.36 4 2 4 C1.34 2.68 0.68 1.36 0 0 Z " fill="#001316" transform="translate(70,75)"/>
<path d="M0 0 C1.9375 0.8125 1.9375 0.8125 4 2 C4.33 2.99 4.66 3.98 5 5 C2.36 5 -0.28 5 -3 5 C-1.125 1.125 -1.125 1.125 0 0 Z " fill="#001519" transform="translate(73,33)"/>
<path d="M0 0 C1.98 0 3.96 0 6 0 C5.01 2.31 4.02 4.62 3 7 C2.34 7 1.68 7 1 7 C0.67 4.69 0.34 2.38 0 0 Z " fill="#001012" transform="translate(54,44)"/>
<path d="M0 0 C0.598125 0.20625 1.19625 0.4125 1.8125 0.625 C1.8125 1.615 1.8125 2.605 1.8125 3.625 C0 4.3125 0 4.3125 -2.1875 4.625 C-3.9375 3.1875 -3.9375 3.1875 -5.1875 1.625 C-2.1875 -0.375 -2.1875 -0.375 0 0 Z " fill="#00AFCE" transform="translate(106.1875,65.375)"/>
<path d="M0 0 C0.66 0.33 1.32 0.66 2 1 C2 3.97 2 6.94 2 10 C1.01 10.33 0.02 10.66 -1 11 C-1.66 10.67 -2.32 10.34 -3 10 C-3 9.01 -3 8.02 -3 7 C-1.68 7.33 -0.36 7.66 1 8 C0.67 5.36 0.34 2.72 0 0 Z " fill="#008CA6" transform="translate(235,35)"/>
<path d="M0 0 C0 0.99 0 1.98 0 3 C-1.65 3.66 -3.3 4.32 -5 5 C-5.66 4.34 -6.32 3.68 -7 3 C-4.49955934 -0.00052879 -4.2621484 0 0 0 Z " fill="#BABABA" transform="translate(285,79)"/>
<path d="M0 0 C1.32 0.33 2.64 0.66 4 1 C3.67 1.33 3.34 1.66 3 2 C5.97 2.495 5.97 2.495 9 3 C8.67 3.66 8.34 4.32 8 5 C5.03 4.505 5.03 4.505 2 4 C1.67 5.32 1.34 6.64 1 8 C0.67 5.36 0.34 2.72 0 0 Z " fill="#0097B3" transform="translate(52,40)"/>
</svg>
