<?xml version="1.0" encoding="UTF-8"?>
<!-- Generator: visioncortex VTracer 0.6.3 -->
<svg version="1.1" xmlns="http://www.w3.org/2000/svg" width="266" height="73">
<path d="M0 0 C6.29 3.23 11.35 8.19 15.38 13.98 C15.38 14.64 15.38 15.3 15.38 15.98 C16.04 15.98 16.7 15.98 17.38 15.98 C20.65 22.15 20.87 27.51 20.82 34.41 C20.84 35.41 20.86 36.41 20.88 37.44 C20.88 43.98 19.81 48.43 16.38 53.98 C15.87 54.97 15.35 55.96 14.82 56.98 C9.78 63.18 2 69.34 -6.17 70.27 C-9.09 70.32 -12.01 70.35 -14.93 70.35 C-15.94 70.38 -16.94 70.4 -17.98 70.43 C-28.28 70.47 -34.14 66.96 -41.57 60.06 C-50.01 51.47 -51.07 43.88 -51.05 32.29 C-50.91 25.13 -50.14 19.74 -45.62 13.98 C-45.11 13.27 -44.6 12.56 -44.08 11.83 C-33.56 -1.59 -15.92 -4.5 0 0 Z " fill="#EBEFF7" transform="translate(51.6171875,1.0234375)"/>
<path d="M0 0 C1.2 0.01 2.4 0.02 3.64 0.03 C5.51 0.07 5.51 0.07 7.42 0.11 C9.32 0.13 9.32 0.13 11.25 0.15 C14.37 0.18 17.49 0.23 20.61 0.29 C21.71 4.03 21.71 4.03 20.78 6.37 C15.66 14.19 8.52 20.21 -0.39 23.29 C-4.16 23.72 -7.92 23.66 -11.71 23.67 C-12.71 23.69 -13.72 23.72 -14.76 23.74 C-23.77 23.78 -29.57 21.38 -36.27 15.36 C-37.01 14.71 -37.75 14.06 -38.51 13.39 C-40.57 11.1 -41.55 9.25 -42.39 6.29 C-42.06 5.63 -41.73 4.97 -41.39 4.29 C-40.51 4.28 -39.63 4.26 -38.72 4.25 C-35.43 4.19 -32.14 4.11 -28.85 4.03 C-27.43 4 -26.01 3.97 -24.59 3.95 C-22.54 3.91 -20.49 3.86 -18.45 3.8 C-17.21 3.78 -15.98 3.75 -14.72 3.73 C-9.12 3 -5.98 -0.09 0 0 Z " fill="#EBF6EB" transform="translate(48.39453125,47.70703125)"/>
<path d="M0 0 C8.16 5.78 12.77 13.75 14.46 23.53 C14.46 24.85 14.46 26.17 14.46 27.53 C5.55 27.53 -3.36 27.53 -12.54 27.53 C-12.21 26.87 -11.88 26.21 -11.54 25.53 C-10.88 25.53 -10.22 25.53 -9.54 25.53 C-9.54 24.54 -9.54 23.55 -9.54 22.53 C-11.24 23.5 -11.24 23.5 -12.97 24.5 C-14.45 25.34 -15.94 26.18 -17.42 27.03 C-18.16 27.46 -18.91 27.89 -19.68 28.33 C-20.4 28.73 -21.11 29.14 -21.85 29.56 C-22.84 30.12 -22.84 30.12 -23.85 30.7 C-25.54 31.53 -25.54 31.53 -27.54 31.53 C-27.54 30.21 -27.54 28.89 -27.54 27.53 C-26.73 27.09 -26.73 27.09 -25.91 26.64 C-23.47 25.32 -21.04 23.98 -18.61 22.65 C-17.76 22.19 -16.91 21.73 -16.03 21.26 C-15.22 20.81 -14.41 20.37 -13.58 19.91 C-12.83 19.5 -12.08 19.09 -11.31 18.67 C-9.39 17.64 -9.39 17.64 -8.54 15.53 C-9.05 15.8 -9.56 16.07 -10.09 16.35 C-12.38 17.58 -14.68 18.8 -16.98 20.03 C-17.78 20.46 -18.59 20.89 -19.41 21.33 C-20.56 21.94 -20.56 21.94 -21.73 22.56 C-22.43 22.94 -23.14 23.31 -23.87 23.7 C-25.54 24.53 -25.54 24.53 -26.54 24.53 C-26.91 21.77 -26.91 21.77 -26.54 18.53 C-24.02 16.45 -24.02 16.45 -20.73 14.71 C-19.11 13.84 -19.11 13.84 -17.46 12.95 C-14.54 11.53 -14.54 11.53 -11.54 10.53 C-11.21 9.87 -10.88 9.21 -10.54 8.53 C-11.6 9.1 -12.66 9.68 -13.75 10.28 C-15.14 11.03 -16.53 11.78 -17.92 12.53 C-18.62 12.91 -19.32 13.29 -20.04 13.68 C-25.32 16.53 -25.32 16.53 -27.54 16.53 C-27.54 14.88 -27.54 13.23 -27.54 11.53 C-26.62 11.05 -25.69 10.56 -24.73 10.07 C-23.52 9.43 -22.31 8.79 -21.11 8.15 C-20.49 7.84 -19.88 7.52 -19.25 7.19 C-15.79 5.5 -15.79 5.5 -13.54 2.53 C-14.3 2.96 -15.06 3.39 -15.84 3.84 C-16.84 4.4 -17.83 4.95 -18.86 5.53 C-20.33 6.36 -20.33 6.36 -21.84 7.21 C-24.54 8.53 -24.54 8.53 -27.54 8.53 C-27.54 6.55 -27.54 4.57 -27.54 2.53 C-24.9 1.21 -22.26 -0.11 -19.54 -1.47 C-21.85 -1.14 -24.16 -0.81 -26.54 -0.47 C-26.54 -1.13 -26.54 -1.79 -26.54 -2.47 C-28.19 -2.47 -29.84 -2.47 -31.54 -2.47 C-31.54 -1.48 -31.54 -0.49 -31.54 0.53 C-32.86 0.2 -34.18 -0.13 -35.54 -0.47 C-35.54 -1.13 -35.54 -1.79 -35.54 -2.47 C-23.49 -7.59 -11.33 -6.56 0 0 Z " fill="#0909FF" transform="translate(56.54296875,7.47265625)"/>
<path d="M0 0 C7 0 7 0 9 1.75 C9.71 2.86 9.71 2.86 10.44 4 C11.18 5.11 11.18 5.11 11.93 6.25 C12.29 6.83 12.64 7.41 13 8 C13.28 7.42 13.56 6.84 13.85 6.25 C14.25 5.51 14.65 4.77 15.06 4 C15.45 3.26 15.83 2.52 16.22 1.75 C18 0 18 0 25 0 C25 7.92 25 15.84 25 24 C23.02 24 21.04 24 19 24 C18.67 20.04 18.34 16.08 18 12 C16.35 14.31 14.7 16.62 13 19 C10.66 16.74 8.81 14.72 7 12 C6.67 15.96 6.34 19.92 6 24 C4.02 24 2.04 24 0 24 C0 16.08 0 8.16 0 0 Z " fill="#FFFFFF" transform="translate(98,23)"/>
<path d="M0 0 C4.11 -0.09 4.11 -0.09 8.31 -0.19 C9.6 -0.23 9.6 -0.23 10.92 -0.27 C11.6 -0.28 12.28 -0.29 12.99 -0.29 C14.03 -0.32 14.03 -0.32 15.1 -0.34 C17.61 0.11 18.48 0.99 20 3 C20.29 6.43 20.09 8.72 19 12 C19.52 12.78 20.03 13.57 20.56 14.38 C22 17 22 17 21.38 19.69 C20 22 20 22 17 24 C15.1 24.23 15.1 24.23 12.99 24.2 C12.31 24.19 11.62 24.19 10.92 24.18 C10.06 24.16 9.2 24.14 8.31 24.12 C4.2 24.06 4.2 24.06 0 24 C0 16.08 0 8.16 0 0 Z M6 5 C6 6.65 6 8.3 6 10 C10.14 10.21 10.14 10.21 14 9 C14 8.01 14 7.02 14 6 C11.29 4.65 8.99 4.93 6 5 Z M6 14 C6 15.65 6 17.3 6 19 C8.64 19 11.28 19 14 19 C14.59 17.05 14.59 17.05 15 15 C14.02 13.79 14.02 13.79 12.15 13.9 C10.1 13.93 8.05 13.97 6 14 Z " fill="#FFFFFF" transform="translate(127,23)"/>
<path d="M0 0 C3.53 -0.12 3.53 -0.12 7.12 -0.25 C7.85 -0.29 8.58 -0.32 9.33 -0.36 C14.4 -0.45 17.14 0.81 21 4 C23.7 8.05 23.54 11.25 23 16 C21.24 20.26 19.12 22.03 15 24 C12.28 24.21 9.88 24.29 7.19 24.19 C4.82 24.13 2.44 24.06 0 24 C0 16.08 0 8.16 0 0 Z M7 5 C7 9.62 7 14.24 7 19 C11.89 18.71 11.89 18.71 16 16.31 C17.39 13.1 17.06 11.31 16 8 C14.35 6.01 14.35 6.01 12 5 C10.35 5 8.7 5 7 5 Z " fill="#5CE1E6" transform="translate(216,23)"/>
<path d="M0 0 C1.41 0.02 2.83 0.04 4.24 0.05 C7.68 0.1 11.12 0.17 14.56 0.25 C14.61 1.92 14.6 3.58 14.56 5.25 C12.7 7.11 9.6 6.42 7.11 6.46 C5.78 6.49 4.44 6.52 3.1 6.55 C0.99 6.59 -1.11 6.62 -3.22 6.65 C-5.26 6.68 -7.29 6.73 -9.32 6.77 C-11.15 6.8 -11.15 6.8 -13.02 6.83 C-16.48 7.06 -16.48 7.06 -19.45 8.76 C-23.01 10.54 -25.41 10.6 -29.37 10.54 C-30.66 10.53 -31.95 10.52 -33.27 10.51 C-34.62 10.49 -35.97 10.46 -37.31 10.44 C-38.68 10.42 -40.05 10.41 -41.42 10.4 C-44.76 10.36 -48.1 10.31 -51.44 10.25 C-51.77 8.6 -52.1 6.95 -52.44 5.25 C-51.57 5.24 -50.69 5.23 -49.79 5.22 C-46.53 5.18 -43.27 5.12 -40 5.04 C-38.6 5.01 -37.19 4.99 -35.78 4.98 C-26.91 5.31 -26.91 5.31 -18.94 2.22 C-13.71 -1.53 -6.17 -0.15 0 0 Z " fill="#2BA82B" transform="translate(56.4375,38.75)"/>
<path d="M0 0 C6.27 0 12.54 0 19 0 C19 1.65 19 3.3 19 5 C14.71 5 10.42 5 6 5 C6 6.65 6 8.3 6 10 C9.96 10 13.92 10 18 10 C18 11.65 18 13.3 18 15 C14.04 15 10.08 15 6 15 C6 16.32 6 17.64 6 19 C10.29 19 14.58 19 19 19 C19 20.65 19 22.3 19 24 C12.73 24 6.46 24 0 24 C0 16.08 0 8.16 0 0 Z " fill="#FFFFFF" transform="translate(75,23)"/>
<path d="M0 0 C4.62 3.11 8.25 7.05 11.56 11.5 C10.9 12.16 10.24 12.82 9.56 13.5 C9.07 12.78 8.57 12.06 8.06 11.31 C1.97 4.45 -6.35 1.01 -15.43 0.25 C-21.73 0.12 -27.35 0.88 -33.44 2.5 C-33.44 3.16 -33.44 3.82 -33.44 4.5 C-32.12 4.83 -30.8 5.16 -29.44 5.5 C-29.11 4.51 -28.78 3.52 -28.44 2.5 C-28.55 4.31 -28.68 6.13 -28.81 7.94 C-28.88 8.95 -28.95 9.96 -29.02 11 C-29.16 11.82 -29.3 12.65 -29.44 13.5 C-30.1 13.83 -30.76 14.16 -31.44 14.5 C-30.78 15.16 -30.12 15.82 -29.44 16.5 C-29.31 19.13 -29.31 19.13 -29.44 21.5 C-34.92 19.95 -39.55 17.34 -44.44 14.5 C-44.93 9.14 -44.93 9.14 -42.71 6.27 C-41.56 5.3 -41.56 5.3 -40.38 4.31 C-39.62 3.66 -38.87 3.01 -38.09 2.33 C-27.9 -4.71 -11.09 -5.68 0 0 Z " fill="#EAEAFF" transform="translate(54.4375,2.5)"/>
<path d="M0 0 C1.98 0 3.96 0 6 0 C6.05 1.13 6.1 2.26 6.15 3.43 C6.22 4.91 6.3 6.39 6.38 7.88 C6.41 8.62 6.44 9.37 6.47 10.14 C6.56 14.53 6.56 14.53 9 18 C11.6 17.68 11.6 17.68 14 17 C15.16 13.53 15.33 10.46 15.56 6.81 C15.65 5.54 15.73 4.27 15.82 2.96 C15.88 1.98 15.94 1.01 16 0 C17.98 0 19.96 0 22 0 C22.08 2.54 22.14 5.08 22.19 7.62 C22.21 8.34 22.24 9.05 22.26 9.79 C22.33 14.6 21.68 17.84 19 22 C14.76 24.82 10.98 24.67 6 24 C3.07 22.2 1.53 21.06 0 18 C-0.08 16.62 -0.11 15.25 -0.1 13.87 C-0.09 13.06 -0.09 12.26 -0.09 11.43 C-0.08 10.58 -0.07 9.74 -0.06 8.88 C-0.06 8.03 -0.05 7.18 -0.05 6.3 C-0.04 4.2 -0.02 2.1 0 0 Z " fill="#5CE1E6" transform="translate(166,23)"/>
<path d="M0 0 C3.06 1.5 3.06 1.5 5 3 C4.01 4.65 3.02 6.3 2 8 C1.24 7.67 0.47 7.34 -0.31 7 C-2.99 5.83 -2.99 5.83 -6 6 C-6 6.66 -6 7.32 -6 8 C-5.29 8.28 -4.58 8.55 -3.85 8.84 C-2.93 9.2 -2.01 9.56 -1.06 9.94 C-0.15 10.3 0.77 10.66 1.71 11.03 C4 12 4 12 5 13 C5.47 18.8 5.47 18.8 5 21 C2.91 23.12 1.54 23.91 -1.4 24.4 C-6.41 24.35 -9.92 24.27 -14 21 C-13.34 19.35 -12.68 17.7 -12 16 C-11.2 16.22 -11.2 16.22 -10.38 16.44 C-7.6 17.09 -4.81 17.55 -2 18 C-1.67 17.01 -1.34 16.02 -1 15 C-1.92 14.84 -1.92 14.84 -2.86 14.67 C-3.67 14.51 -4.48 14.35 -5.31 14.19 C-6.51 13.96 -6.51 13.96 -7.74 13.73 C-10.3 12.9 -11.39 12.14 -13 10 C-13.75 4.01 -13.75 4.01 -11.56 1.06 C-7.71 -0.54 -4.11 -0.57 0 0 Z " fill="#5CE1E6" transform="translate(256,23)"/>
<path d="M0 0 C4.2 0.91 7.58 2.9 11.25 5.06 C12.22 5.63 12.22 5.63 13.22 6.21 C14.82 7.13 16.41 8.07 18 9 C18 10.65 18 12.3 18 14 C13.37 12.61 9.35 10.7 5.12 8.38 C3.97 7.74 2.82 7.11 1.63 6.46 C0.76 5.98 -0.1 5.5 -1 5 C-1 5.66 -1 6.32 -1 7 C0.27 7.38 0.27 7.38 1.57 7.76 C5.27 9.1 8.53 10.84 11.88 12.88 C12.47 13.21 13.06 13.55 13.67 13.9 C15.37 14.93 15.37 14.93 18 17 C18 18.32 18 19.64 18 21 C14.46 19.63 11.07 18.09 7.69 16.38 C6.8 15.93 5.92 15.48 5.01 15.02 C4.35 14.69 3.68 14.35 3 14 C5.44 16.56 7.96 18.19 11 20 C11 20.33 11 20.66 11 21 C6.05 21 1.1 21 -4 21 C-4.38 12.82 -4.05 7.17 0 0 Z " fill="#0F0FFF" transform="translate(7,18)"/>
<path d="M0 0 C3.12 1.5 3.12 1.5 5 3 C4.34 4.32 3.68 5.64 3 7 C-1 7 -1 7 -3.5 6.44 C-6.27 5.78 -6.27 5.78 -10 7 C-10 10.3 -10 13.6 -10 17 C-5.28 17.92 -2.33 18.23 2 16 C3.5 17.38 3.5 17.38 5 19 C5 19.66 5 20.32 5 21 C1.2 24.3 -2.64 24.64 -7.49 24.47 C-11.81 23.66 -14.5 21.58 -17 18 C-18.58 13.87 -18.31 10.89 -16.88 6.75 C-12.28 0.01 -7.87 -1.12 0 0 Z " fill="#5CE1E6" transform="translate(208,23)"/>
<path d="M0 0 C1.26 0.02 2.52 0.04 3.82 0.05 C6.92 0.1 10.02 0.17 13.12 0.25 C12.47 1.9 11.81 3.55 11.12 5.25 C10.36 5.26 9.6 5.28 8.82 5.29 C5.36 5.37 1.9 5.47 -1.56 5.56 C-2.76 5.59 -3.96 5.61 -5.19 5.63 C-6.93 5.68 -6.93 5.68 -8.7 5.74 C-9.76 5.76 -10.83 5.79 -11.92 5.82 C-14.93 6.06 -14.93 6.06 -17.38 7.76 C-20.48 9.61 -22.46 9.6 -26.05 9.54 C-27.79 9.53 -27.79 9.53 -29.56 9.51 C-30.75 9.49 -31.95 9.46 -33.19 9.44 C-35.01 9.42 -35.01 9.42 -36.88 9.4 C-39.88 9.36 -42.88 9.31 -45.88 9.25 C-46.53 7.93 -47.2 6.61 -47.88 5.25 C-47.06 5.24 -46.24 5.23 -45.4 5.22 C-41.68 5.17 -37.97 5.08 -34.25 5 C-32.96 4.99 -31.68 4.97 -30.36 4.96 C-23.2 4.98 -23.2 4.98 -16.84 2.22 C-11.77 -1.15 -5.93 -0.16 0 0 Z " fill="#2AA72A" transform="translate(55.875,47.75)"/>
<path d="M0 0 C0.33 0 0.66 0 1 0 C1.12 7.63 1.12 7.63 0 11 C-0.66 11 -1.32 11 -2 11 C-2 10.34 -2 9.68 -2 9 C-6.4 9.08 -10.79 9.19 -15.19 9.31 C-16.43 9.34 -17.68 9.36 -18.96 9.38 C-20.16 9.42 -21.37 9.45 -22.61 9.49 C-24.26 9.53 -24.26 9.53 -25.95 9.57 C-29.04 9.8 -29.04 9.8 -31.46 11.51 C-34.81 13.47 -37.19 13.34 -41.05 13.29 C-41.71 13.29 -42.37 13.28 -43.05 13.28 C-45.14 13.26 -47.22 13.23 -49.31 13.19 C-50.74 13.17 -52.16 13.16 -53.58 13.15 C-57.05 13.11 -60.53 13.06 -64 13 C-64 13.66 -64 14.32 -64 15 C-66.82 13.97 -67.83 13.3 -69.31 10.62 C-70.03 7.89 -69.97 6.61 -69 4 C-69 4.66 -69 5.32 -69 6 C-68.34 6 -67.68 6 -67 6 C-66.67 7.32 -66.34 8.64 -66 10 C-61.98 9.93 -57.96 9.84 -53.94 9.74 C-52.57 9.7 -51.21 9.68 -49.84 9.65 C-47.87 9.62 -45.9 9.57 -43.93 9.51 C-42.75 9.49 -41.56 9.46 -40.34 9.43 C-36.95 9.18 -36.95 9.18 -34.01 7.5 C-30.43 5.71 -27.84 5.57 -23.85 5.49 C-23.19 5.47 -22.54 5.45 -21.86 5.43 C-19.78 5.38 -17.7 5.35 -15.62 5.31 C-14.21 5.28 -12.79 5.24 -11.37 5.21 C-7.91 5.12 -4.46 5.06 -1 5 C-0.67 3.35 -0.34 1.7 0 0 Z " fill="#FAFCFA" transform="translate(71,39)"/>
<path d="M0 0 C0.93 0.01 1.85 0.03 2.81 0.04 C5.08 0.08 7.35 0.13 9.62 0.19 C8.97 1.51 8.3 2.83 7.62 4.19 C6.49 4.21 5.36 4.24 4.19 4.27 C-5.02 4.19 -5.02 4.19 -13.44 7.25 C-17.26 9.62 -21.18 9.67 -25.56 9.75 C-26.25 9.78 -26.94 9.8 -27.65 9.83 C-31.69 9.8 -33.25 9.3 -36.36 6.65 C-37.36 5.43 -37.36 5.43 -38.38 4.19 C-37.74 4.17 -37.1 4.16 -36.45 4.14 C-33.55 4.07 -30.65 3.97 -27.75 3.88 C-26.25 3.84 -26.25 3.84 -24.72 3.81 C-18.81 3.62 -18.81 3.62 -13.31 1.66 C-8.94 -0.53 -4.82 -0.13 0 0 Z " fill="#20A320" transform="translate(53.375,56.8125)"/>
<path d="M0 0 C8.58 0 17.16 0 26 0 C26.33 0.99 26.66 1.98 27 3 C18.42 3 9.84 3 1 3 C0.67 2.01 0.34 1.02 0 0 Z " fill="#159E15" transform="translate(9,54)"/>
<path d="M0 0 C4.71 0.59 10.56 2.56 14 6 C14.04 7.67 14.04 9.33 14 11 C8.52 9.45 3.89 6.84 -1 4 C-0.67 2.68 -0.34 1.36 0 0 Z " fill="#1111FF" transform="translate(11,13)"/>
<path d="M0 0 C3.96 0 7.92 0 12 0 C12 1.65 12 3.3 12 5 C8.04 5 4.08 5 0 5 C0 3.35 0 1.7 0 0 Z " fill="#FFFFFF" transform="translate(151,34)"/>
<path d="M0 0 C0.33 0 0.66 0 1 0 C1 2.64 1 5.28 1 8 C5.62 7.67 10.24 7.34 15 7 C12.36 5.35 9.72 3.7 7 2 C7.33 1.34 7.66 0.68 8 0 C11.63 1.98 15.26 3.96 19 6 C18.67 6.99 18.34 7.98 18 9 C12.06 9 6.12 9 0 9 C0 6.03 0 3.06 0 0 Z " fill="#B6B6FF" transform="translate(2,31)"/>
<path d="M0 0 C2.81 1.25 2.81 1.25 3.81 2.25 C3.85 4.25 3.86 6.25 3.81 8.25 C-0.7 6.99 -3.68 5.35 -7.19 2.25 C-4.51 -0.43 -3.81 -0.9 0 0 Z " fill="#1515FF" transform="translate(21.1875,7.75)"/>
<path d="M0 0 C-1 3 -1 3 -2.55 4.09 C-3.2 4.42 -3.86 4.74 -4.53 5.08 C-5.59 5.61 -5.59 5.61 -6.68 6.16 C-7.8 6.7 -7.8 6.7 -8.94 7.25 C-9.68 7.63 -10.42 8 -11.19 8.39 C-13.09 9.33 -15.04 10.17 -17 11 C-17.66 10.67 -18.32 10.34 -19 10 C-19 8.02 -19 6.04 -19 4 C-18.34 5.32 -17.68 6.64 -17 8 C-15.94 7.42 -14.88 6.84 -13.79 6.25 C-12.4 5.5 -11.01 4.75 -9.62 4 C-8.93 3.62 -8.23 3.24 -7.51 2.84 C-2.23 0 -2.23 0 0 0 Z " fill="#CACAFF" transform="translate(48,23)"/>
<path d="M0 0 C0.33 0.99 0.66 1.98 1 3 C-1.91 4.26 -3.8 5 -7 5 C-7 4.34 -7 3.68 -7 3 C-8.65 3 -10.3 3 -12 3 C-12 3.99 -12 4.98 -12 6 C-13.32 5.67 -14.64 5.34 -16 5 C-16 4.34 -16 3.68 -16 3 C-10.47 0.89 -5.93 -0.38 0 0 Z " fill="#1515FF" transform="translate(37,2)"/>
<path d="M0 0 C0.33 0.66 0.66 1.32 1 2 C2.33 2.34 3.67 2.67 5 3 C6.94 3.98 8.85 5 10.75 6.06 C11.73 6.61 12.72 7.16 13.73 7.72 C14.48 8.14 15.23 8.57 16 9 C15.67 7.02 15.34 5.04 15 3 C15.66 3 16.32 3 17 3 C17 5.31 17 7.62 17 10 C15.39 10.7 15.39 10.7 13 11 C10.02 9.71 10.02 9.71 6.81 7.81 C5.75 7.2 4.68 6.59 3.58 5.96 C1 4 1 4 0.14 1.76 C0.09 1.18 0.05 0.6 0 0 Z " fill="#CDCDFF" transform="translate(9,15)"/>
<path d="M0 0 C1.23 0.01 1.23 0.01 2.48 0.03 C3.42 0.04 3.42 0.04 4.38 0.06 C3.38 2.06 3.38 2.06 0.75 3.19 C-2.84 4.12 -5.93 4.21 -9.62 4.06 C-6.41 0.7 -4.65 -0.07 0 0 Z " fill="#33AB33" transform="translate(48.625,64.9375)"/>
<path d="M0 0 C3.9 1.49 7.59 3.24 11.31 5.12 C12.38 5.66 13.45 6.2 14.55 6.76 C15.76 7.37 15.76 7.37 17 8 C16.01 8.66 15.02 9.32 14 10 C7.07 6.04 7.07 6.04 0 2 C0 1.34 0 0.68 0 0 Z " fill="#D0D0FF" transform="translate(6,23)"/>
<path d="M0 0 C-1 3 -1 3 -3.72 4.61 C-4.82 5.13 -5.93 5.65 -7.06 6.19 C-8.17 6.72 -9.27 7.25 -10.41 7.79 C-11.26 8.19 -12.12 8.59 -13 9 C-13.66 8.34 -14.32 7.68 -15 7 C-12.88 5.83 -10.75 4.66 -8.62 3.5 C-7.72 3 -7.72 3 -6.8 2.49 C-2.23 0 -2.23 0 0 0 Z " fill="#CACAFF" transform="translate(46,16)"/>
<path d="M0 0 C-1 3 -1 3 -3.18 4.42 C-4.07 4.86 -4.96 5.3 -5.88 5.75 C-6.76 6.2 -7.64 6.65 -8.55 7.11 C-11 8 -11 8 -14 7 C-10.34 3.95 -4.92 0 0 0 Z " fill="#D6D6FF" transform="translate(43,10)"/>
<path d="M0 0 C3.3 1.65 6.6 3.3 10 5 C9.01 5.66 8.02 6.32 7 7 C4.74 6.32 4.74 6.32 2.31 5.12 C1.5 4.74 0.7 4.35 -0.14 3.95 C-0.75 3.63 -1.37 3.32 -2 3 C-1.34 2.01 -0.68 1.02 0 0 Z " fill="#D6D6FF" transform="translate(13,10)"/>
<path d="M0 0 C0.66 0.33 1.32 0.66 2 1 C1.01 1.33 0.02 1.66 -1 2 C-1 2.66 -1 3.32 -1 4 C-4.63 3.67 -8.26 3.34 -12 3 C-10 1 -10 1 -6.56 0.94 C-5.39 0.96 -4.21 0.98 -3 1 C-2.01 0.67 -1.02 0.34 0 0 Z " fill="#D0ECD0" transform="translate(49,67)"/>
<path d="M0 0 C0 0.99 0 1.98 0 3 C-1.32 3.33 -2.64 3.66 -4 4 C-4 4.66 -4 5.32 -4 6 C-4.66 6 -5.32 6 -6 6 C-6.33 5.01 -6.66 4.02 -7 3 C-2.25 0 -2.25 0 0 0 Z " fill="#D9D9FF" transform="translate(47,30)"/>
<path d="M0 0 C0.99 0.66 1.98 1.32 3 2 C1.68 2 0.36 2 -1 2 C-1 2.99 -1 3.98 -1 5 C-2.32 4.67 -3.64 4.34 -5 4 C-5 3.34 -5 2.68 -5 2 C-2.69 0.88 -2.69 0.88 0 0 Z " fill="#4040FF" transform="translate(26,3)"/>
</svg>
